<?xml version="1.0" encoding="utf-8"?>
<!-- Generator: Adobe Illustrator 24.1.2, SVG Export Plug-In . SVG Version: 6.00 Build 0)  -->
<svg version="1.1" id="Layer_1" xmlns="http://www.w3.org/2000/svg" xmlns:xlink="http://www.w3.org/1999/xlink" x="0px" y="0px"
	 viewBox="0 0 155.91 155.91" style="enable-background:new 0 0 155.91 155.91;" xml:space="preserve">
<style type="text/css">
	.st0{fill:#FFFFFF;}
	.st1{fill:none;stroke:#000000;stroke-miterlimit:10;}
</style>
<g>
	<path d="M81.56,148.82c-2.37,0-4.74,0-7.11,0c-0.16-0.03-0.31-0.08-0.47-0.09c-3.21-0.17-6.4-0.58-9.55-1.19
		c-6.09-1.18-11.93-3.13-17.5-5.86c-8.81-4.32-16.43-10.19-22.78-17.67C13.9,111.93,8.27,97.96,7.28,82.14
		c-0.03-0.48-0.12-0.96-0.19-1.43c0-1.83,0-3.66,0-5.5c0.06-0.46,0.16-0.91,0.19-1.37c0.18-3.19,0.59-6.36,1.2-9.5
		c1.31-6.74,3.56-13.14,6.75-19.22c3.65-6.96,8.34-13.15,14.04-18.56c5.44-5.16,11.53-9.35,18.3-12.58
		C56.24,9.84,65.39,7.59,75,7.17c0.21-0.01,0.42-0.05,0.64-0.08c1.58,0,3.16,0,4.74,0c0.21,0.03,0.42,0.07,0.64,0.08
		c2.37,0.11,4.73,0.32,7.08,0.65c4.53,0.64,8.95,1.71,13.26,3.22c10.75,3.77,20.07,9.78,27.93,18.01
		c7.42,7.77,12.81,16.77,16.14,26.99c1.89,5.81,3.07,11.76,3.3,17.89c0.01,0.21,0.06,0.42,0.09,0.63c0,2.3,0,4.6,0,6.9
		c-0.03,0.21-0.08,0.42-0.09,0.63c-0.02,0.47,0,0.94-0.04,1.4c-0.22,2.59-0.55,5.17-1.03,7.73c-1.31,6.91-3.57,13.49-6.87,19.69
		c-7.06,13.27-17.27,23.37-30.64,30.24c-8.8,4.53-18.18,7.02-28.06,7.57C81.91,148.74,81.74,148.79,81.56,148.82z M75.64,78.38
		c0-1.8-0.45-2.94-1.5-4.02c-2.73-2.83-5.47-5.65-8.21-8.47c-3.35-3.46-6.7-6.91-10.05-10.37c-2.35-2.42-4.7-4.85-7.05-7.27
		c-1.09-1.11-2.64-1.17-3.76-0.11c-0.61,0.58-1.2,1.19-1.76,1.82c-0.94,1.06-0.92,2.63,0.02,3.69c0.26,0.3,0.55,0.57,0.82,0.86
		c4.23,4.36,8.45,8.72,12.68,13.07c2.45,2.53,4.88,5.08,7.36,7.58c1.55,1.56,1.58,4.07,0.01,5.61c-0.61,0.6-1.2,1.23-1.8,1.85
		c-3.66,3.78-7.32,7.56-10.99,11.33c-2.64,2.72-5.28,5.44-7.91,8.16c-1.16,1.2-1.14,2.85,0.02,4.05c0.45,0.47,0.9,0.93,1.35,1.39
		c1.22,1.26,2.8,1.28,4.03,0.02c3.23-3.32,6.45-6.65,9.68-9.98c3.68-3.79,7.35-7.58,11.02-11.37c1.56-1.61,3.13-3.22,4.69-4.84
		C75.18,80.44,75.62,79.29,75.64,78.38z M80.38,77.92c0.04,1.38,0.51,2.56,1.47,3.55c2.2,2.27,4.4,4.54,6.6,6.81
		c2.79,2.87,5.58,5.75,8.37,8.62c3.47,3.57,6.93,7.14,10.4,10.71c1.17,1.2,2.71,1.2,3.91,0.01c0.51-0.51,1.01-1.02,1.5-1.55
		c1.1-1.17,1.09-2.81-0.04-3.97c-4.1-4.23-8.2-8.46-12.31-12.68c-2.81-2.9-5.63-5.79-8.44-8.71c-1.6-1.66-1.57-3.93,0.05-5.59
		c2.06-2.13,4.13-4.25,6.19-6.38c3.7-3.82,7.4-7.63,11.1-11.45c1.14-1.17,2.28-2.34,3.41-3.52c1.09-1.14,1.1-2.78,0.02-3.93
		c-0.49-0.53-0.99-1.04-1.48-1.56c-0.33-0.35-0.7-0.62-1.16-0.75c-1.06-0.31-1.98-0.05-2.75,0.74c-2.88,2.96-5.76,5.93-8.63,8.89
		c-3.43,3.53-6.85,7.06-10.28,10.6c-2.19,2.26-4.38,4.51-6.56,6.77C80.84,75.47,80.43,76.63,80.38,77.92z"/>
	<path class="st0" d="M75.64,78.38c-0.02,0.91-0.46,2.06-1.37,3.01c-1.56,1.62-3.12,3.23-4.69,4.84
		c-3.67,3.79-7.35,7.58-11.02,11.37c-3.23,3.33-6.45,6.65-9.68,9.98c-1.22,1.26-2.81,1.24-4.03-0.02c-0.45-0.47-0.9-0.93-1.35-1.39
		c-1.16-1.2-1.18-2.85-0.02-4.05c2.63-2.73,5.28-5.44,7.91-8.16c3.66-3.78,7.33-7.56,10.99-11.33c0.6-0.62,1.19-1.25,1.8-1.85
		c1.56-1.54,1.53-4.05-0.01-5.61c-2.48-2.5-4.91-5.05-7.36-7.58c-4.22-4.36-8.45-8.72-12.68-13.07c-0.28-0.28-0.56-0.56-0.82-0.86
		c-0.94-1.06-0.96-2.63-0.02-3.69c0.56-0.63,1.15-1.24,1.76-1.82c1.12-1.05,2.67-1,3.76,0.11c2.36,2.42,4.7,4.85,7.05,7.27
		c3.35,3.46,6.7,6.91,10.05,10.37c2.74,2.82,5.48,5.64,8.21,8.47C75.19,75.44,75.64,76.58,75.64,78.38z"/>
	<path class="st0" d="M80.38,77.92c0.05-1.3,0.45-2.46,1.37-3.41c2.18-2.26,4.37-4.52,6.56-6.77c3.43-3.53,6.85-7.06,10.28-10.6
		c2.88-2.96,5.76-5.93,8.63-8.89c0.77-0.79,1.69-1.06,2.75-0.74c0.46,0.14,0.83,0.41,1.16,0.75c0.49,0.52,0.99,1.04,1.48,1.56
		c1.08,1.15,1.07,2.79-0.02,3.93c-1.13,1.18-2.27,2.35-3.41,3.52c-3.7,3.82-7.4,7.63-11.1,11.45c-2.06,2.13-4.13,4.25-6.19,6.38
		c-1.61,1.67-1.65,3.93-0.05,5.59c2.8,2.91,5.62,5.81,8.44,8.71c4.1,4.23,8.21,8.45,12.31,12.68c1.12,1.16,1.13,2.8,0.04,3.97
		c-0.49,0.52-0.99,1.04-1.5,1.55c-1.19,1.19-2.74,1.19-3.91-0.01c-3.47-3.56-6.93-7.14-10.4-10.71c-2.79-2.87-5.58-5.75-8.37-8.62
		c-2.2-2.27-4.4-4.54-6.6-6.81C80.89,80.49,80.42,79.3,80.38,77.92z"/>
</g>
<path class="st1" d="M81.78,153.07c-2.51,0-5.03,0-7.54,0c-0.16-0.03-0.33-0.08-0.49-0.09c-3.41-0.18-6.78-0.61-10.13-1.26
	c-6.46-1.25-12.65-3.32-18.55-6.21c-9.33-4.58-17.42-10.8-24.14-18.73C10.06,113.97,4.09,99.16,3.03,82.39
	C3,81.88,2.9,81.37,2.83,80.87c0-1.94,0-3.88,0-5.83c0.07-0.49,0.17-0.97,0.2-1.46c0.19-3.39,0.62-6.74,1.27-10.07
	c1.39-7.14,3.78-13.93,7.16-20.37c3.87-7.38,8.84-13.94,14.88-19.67c5.76-5.46,12.22-9.92,19.4-13.33
	c9.2-4.38,18.91-6.77,29.09-7.21c0.23-0.01,0.45-0.06,0.67-0.09c1.68,0,3.35,0,5.03,0c0.23,0.03,0.45,0.08,0.68,0.09
	c2.51,0.11,5.01,0.34,7.5,0.69c4.8,0.68,9.48,1.81,14.06,3.41c11.39,4,21.27,10.36,29.61,19.09c7.87,8.23,13.58,17.78,17.11,28.61
	c2.01,6.16,3.25,12.47,3.5,18.96c0.01,0.22,0.06,0.44,0.1,0.67c0,2.44,0,4.87,0,7.31c-0.03,0.22-0.09,0.45-0.1,0.67
	c-0.02,0.49,0,0.99-0.04,1.48c-0.23,2.75-0.58,5.48-1.09,8.2c-1.38,7.32-3.78,14.3-7.28,20.87c-7.48,14.06-18.31,24.77-32.48,32.06
	c-9.33,4.8-19.27,7.44-29.74,8.03C82.15,152.99,81.96,153.04,81.78,153.07z"/>
</svg>
